<svg xmlns="http://www.w3.org/2000/svg" xmlns:svgjs="http://svgjs.com/svgjs" xmlns:xlink="http://www.w3.org/1999/xlink" width="288" height="288"><svg xmlns="http://www.w3.org/2000/svg" width="288" height="288" viewBox="0 0 24 24"><path fill="#364f6b" d="M12 0C5.373 0 0 5.373 0 12s5.373 12 12 12c6.628 0 12-5.372 12-12 0-6.627-5.372-12-12-12zm7.914 17.202a4.997 4.997 0 0 1-2.634 1.295.234.234 0 0 1-.271-.231v-.396c0-.108-.087-.177-.195-.177H8.779c-.073 0-.135-.001-.197.036l-1.006.59a.37.37 0 0 1-.197.054H6.313c-.08 0-.127-.027-.167-.095a15.29 15.29 0 0 0-1.586-2.182c-.226-.259-.083-.591.264-.591h2.442c.059 0 .121.022.175.047.518.243 1.035.486 1.554.728.371.175.653-.098.609-.408-.51-3.544-3.584-4.356-5.307-4.658a.346.346 0 0 1-.292-.395c.155-1 .481-1.985.955-2.809.082-.142.251-.186.41-.145.74.19 1.709.495 2.717 1.026.523.275.885.338 1.113.145a16.288 16.288 0 0 0-3.122-2.22c-.119-.063-.197-.173-.076-.314.714-.829 1.319-1.321 2.218-1.844.141-.081.281-.048.423.032a14.15 14.15 0 0 1 2.828 2.068c.3.287.657.548 1.124.502-.737-1.268-1.807-2.283-2.595-2.959-.163-.14-.207-.346.089-.436a8.667 8.667 0 0 1 3.077-.343.744.744 0 0 1 .476.204c2.089 1.894 2.484 3.134 2.917 4.399.449 1.316.474 2.309.481 3.307.007.938-.138 2.227-.729 4.352-.056.201-.005.543.273.547.078.002.156 0 .235 0 .108 0 .19-.122.19-.23v-.362c0-.144.129-.253.271-.231.996.159 1.91.615 2.634 1.296a.273.273 0 0 1 0 .398z" class="color000 svgShape"/><path fill="#364f6b" d="M14.102 13.157c-.598 0-1.082.485-1.082 1.085a1.083 1.083 0 1 0 2.165 0c0-.6-.484-1.085-1.083-1.085z" class="color000 svgShape"/></svg></svg>